<svg width="114" height="43" viewBox="0 0 114 43" fill="none" xmlns="http://www.w3.org/2000/svg">
<g clip-path="url(#clip0_1_2)">
<path fill-rule="evenodd" clip-rule="evenodd" d="M6.87362 9.50982C6.84785 9.1974 6.77489 8.77754 6.62559 8.3881C5.74148 6.80422 3.56351 6.0569 1.25886 5.77611C0.525784 5.6868 -0.145458 4.40292 0.297474 3.812C0.833129 3.09738 1.53624 3.21629 2.41593 3.3704C5.88263 3.97772 10.382 5.0581 10.3758 8.82784C10.3866 8.91208 10.3922 8.99795 10.3922 9.08514V22.2407C10.3922 23.2123 9.60452 24 8.6329 24C7.66127 24 6.87362 23.2123 6.87362 22.2407V9.93688C6.87361 9.9369 6.87362 9.93686 6.87362 9.93688V9.50982Z" fill="url(#paint0_linear_1_2)"/>
<path d="M18.2353 3C18.6576 3 19 3.34237 19 3.76471C19 4.99923 17.9992 6 16.7647 6H1.18182C0.529118 6 -2.85307e-08 5.47088 0 4.81818C4.3893e-08 3.81403 0.814028 3 1.81818 3H18.2353Z" fill="#F10101"/>
<path d="M50.9824 7.52864C50.3067 7.10684 49.8909 6.32735 49.9033 5.50553C49.9281 3.8562 51.5748 2.88738 52.938 3.72013L66.4206 11.9566C66.8714 12.2321 67.1 12.7946 66.9737 13.3182C66.5278 15.1672 64.5566 16.0024 62.9726 15.0135L50.9824 7.52864Z" fill="url(#paint1_linear_1_2)"/>
<path fill-rule="evenodd" clip-rule="evenodd" d="M53.9329 11.2023C52.6168 10.3379 50.8672 11.282 50.8672 12.8566V22.4899C50.8672 23.5829 51.7534 24.4691 52.8464 24.4691C53.0432 24.4691 53.2333 24.4403 53.4127 24.3869C53.8049 24.4404 54.2209 24.3735 54.6102 24.1684L66.9677 17.6559C67.5968 17.3244 68 16.6454 68 15.9175V15V14.9976V14.721C68 14.6203 67.9905 14.5231 67.9725 14.4303C67.8299 13.0299 67.161 12.5126 66.6472 12.1151C66.5964 12.0758 66.5471 12.0377 66.5 12C66.2425 12.7726 66.1176 13.1473 65.8794 13.4246C65.7005 13.6329 65.4576 13.7863 65.0467 14.0122L54.8256 19.2797V12.8566C54.8256 12.1901 54.4901 11.5683 53.9329 11.2023Z" fill="#F10101"/>
<path d="M13.48 10H20.82C20.98 10 21.12 10.06 21.24 10.18C21.36 10.2867 21.42 10.4267 21.42 10.6C21.42 10.7733 21.36 10.9133 21.24 11.02C21.12 11.1267 20.98 11.18 20.82 11.18H13.94L14.14 10.84V16.46L13.92 16.2H19.92C20.08 16.2 20.22 16.26 20.34 16.38C20.46 16.5 20.52 16.64 20.52 16.8C20.52 16.9733 20.46 17.1133 20.34 17.22C20.22 17.3267 20.08 17.38 19.92 17.38H13.96L14.14 17.18V22.94L14.04 22.82H20.82C20.98 22.82 21.12 22.88 21.24 23C21.36 23.12 21.42 23.26 21.42 23.42C21.42 23.5933 21.36 23.7333 21.24 23.84C21.12 23.9467 20.98 24 20.82 24H13.48C13.32 24 13.18 23.94 13.06 23.82C12.94 23.7 12.88 23.56 12.88 23.4V10.6C12.88 10.44 12.94 10.3 13.06 10.18C13.18 10.06 13.32 10 13.48 10ZM34.4672 11.04C34.6272 11.1467 34.7205 11.2867 34.7472 11.46C34.7739 11.62 34.7339 11.78 34.6272 11.94C34.5339 12.06 34.4139 12.1267 34.2672 12.14C34.1205 12.1533 33.9805 12.1267 33.8472 12.06C33.3405 11.7267 32.7939 11.4667 32.2072 11.28C31.6339 11.0933 31.0139 11 30.3472 11C29.5339 11 28.7739 11.1467 28.0672 11.44C27.3739 11.72 26.7672 12.1333 26.2472 12.68C25.7272 13.2133 25.3205 13.8467 25.0272 14.58C24.7472 15.3133 24.6072 16.12 24.6072 17C24.6072 17.9067 24.7539 18.7333 25.0472 19.48C25.3405 20.2133 25.7472 20.8467 26.2672 21.38C26.8005 21.9133 27.4139 22.32 28.1072 22.6C28.8005 22.88 29.5472 23.02 30.3472 23.02C31.0005 23.02 31.6139 22.9267 32.1872 22.74C32.7739 22.5533 33.3205 22.3 33.8272 21.98C33.9605 21.9 34.1005 21.8733 34.2472 21.9C34.4072 21.9133 34.5339 21.9867 34.6272 22.12C34.7472 22.2667 34.7872 22.4267 34.7472 22.6C34.7205 22.76 34.6339 22.8867 34.4872 22.98C34.1539 23.1933 33.7605 23.3933 33.3072 23.58C32.8539 23.7667 32.3739 23.9133 31.8672 24.02C31.3605 24.14 30.8539 24.2 30.3472 24.2C29.3872 24.2 28.4872 24.0267 27.6472 23.68C26.8072 23.3333 26.0605 22.8467 25.4072 22.22C24.7539 21.58 24.2405 20.82 23.8672 19.94C23.5072 19.06 23.3272 18.08 23.3272 17C23.3272 15.96 23.5072 15.0067 23.8672 14.14C24.2272 13.26 24.7272 12.5 25.3672 11.86C26.0072 11.22 26.7539 10.72 27.6072 10.36C28.4605 10 29.3739 9.82 30.3472 9.82C31.1072 9.82 31.8405 9.92667 32.5472 10.14C33.2539 10.3533 33.8939 10.6533 34.4672 11.04ZM37.9536 10C38.1136 10 38.2536 10.06 38.3736 10.18C38.5069 10.3 38.5736 10.4467 38.5736 10.62V23.38C38.5603 23.5533 38.4869 23.7 38.3536 23.82C38.2336 23.94 38.0936 24 37.9336 24C37.7469 24 37.5936 23.94 37.4736 23.82C37.3669 23.7 37.3136 23.5533 37.3136 23.38V10.62C37.3136 10.4467 37.3736 10.3 37.4936 10.18C37.6136 10.06 37.7669 10 37.9536 10ZM47.3336 10C47.5203 10 47.6669 10.06 47.7736 10.18C47.8936 10.3 47.9536 10.4467 47.9536 10.62V23.38C47.9403 23.5533 47.8736 23.7 47.7536 23.82C47.6469 23.94 47.5003 24 47.3136 24C47.1403 24 46.9936 23.94 46.8736 23.82C46.7536 23.7 46.6936 23.5533 46.6936 23.38V10.62C46.6936 10.4467 46.7536 10.3 46.8736 10.18C47.0069 10.06 47.1603 10 47.3336 10ZM37.8536 16.26H47.3536L47.3336 17.42H37.7736L37.8536 16.26Z" fill="white"/>
<path d="M71.74 23.4C71.74 23.56 71.68 23.7 71.56 23.82C71.44 23.94 71.3 24 71.14 24C70.9667 24 70.82 23.94 70.7 23.82C70.5933 23.7 70.54 23.56 70.54 23.4V14.2C70.54 14.04 70.5933 13.9 70.7 13.78C70.82 13.66 70.9667 13.6 71.14 13.6C71.3133 13.6 71.4533 13.66 71.56 13.78C71.68 13.9 71.74 14.04 71.74 14.2V23.4ZM71.14 12.26C70.86 12.26 70.6467 12.2 70.5 12.08C70.3667 11.9467 70.3 11.76 70.3 11.52V11.32C70.3 11.08 70.3733 10.9 70.52 10.78C70.68 10.6467 70.8933 10.58 71.16 10.58C71.4133 10.58 71.6067 10.6467 71.74 10.78C71.8867 10.9 71.96 11.08 71.96 11.32V11.52C71.96 11.76 71.8867 11.9467 71.74 12.08C71.6067 12.2 71.4067 12.26 71.14 12.26ZM79.1173 13.54C79.7173 13.54 80.2707 13.6467 80.7773 13.86C81.284 14.06 81.724 14.3267 82.0973 14.66C82.484 14.98 82.784 15.3267 82.9973 15.7C83.2107 16.06 83.3173 16.4067 83.3173 16.74L82.9773 16.26V14.4C82.9773 14.2267 83.0307 14.08 83.1373 13.96C83.2573 13.84 83.404 13.78 83.5773 13.78C83.764 13.78 83.9107 13.84 84.0173 13.96C84.124 14.08 84.1773 14.2267 84.1773 14.4V23.06C84.1773 24.1267 83.9573 25.0267 83.5173 25.76C83.0773 26.4933 82.4773 27.0467 81.7173 27.42C80.9707 27.8067 80.1173 28 79.1573 28C78.6907 28 78.1973 27.94 77.6773 27.82C77.1707 27.7 76.7307 27.5467 76.3573 27.36C75.9973 27.1733 75.7973 26.98 75.7573 26.78C75.6507 26.66 75.5973 26.54 75.5973 26.42C75.6107 26.3133 75.6707 26.22 75.7773 26.14C75.9107 26.0467 76.0507 26.0333 76.1973 26.1C76.344 26.18 76.564 26.28 76.8573 26.4C76.9907 26.44 77.1707 26.5 77.3973 26.58C77.624 26.66 77.8907 26.7267 78.1973 26.78C78.5173 26.8467 78.8507 26.88 79.1973 26.88C80.3973 26.88 81.324 26.5333 81.9773 25.84C82.644 25.16 82.9773 24.26 82.9773 23.14V21.22L83.1973 21.28C83.0773 21.76 82.8773 22.18 82.5973 22.54C82.3307 22.9 82.0107 23.2067 81.6373 23.46C81.264 23.7 80.8573 23.88 80.4173 24C79.9907 24.1333 79.564 24.2 79.1373 24.2C78.2173 24.2 77.3907 23.9667 76.6573 23.5C75.924 23.0333 75.3373 22.4 74.8973 21.6C74.4707 20.8 74.2573 19.8867 74.2573 18.86C74.2573 17.8467 74.4707 16.94 74.8973 16.14C75.3373 15.3267 75.9173 14.6933 76.6373 14.24C77.3707 13.7733 78.1973 13.54 79.1173 13.54ZM79.2573 14.66C78.524 14.66 77.864 14.8467 77.2773 15.22C76.704 15.58 76.2507 16.08 75.9173 16.72C75.5973 17.3467 75.4373 18.06 75.4373 18.86C75.4373 19.66 75.5973 20.38 75.9173 21.02C76.2507 21.66 76.704 22.1667 77.2773 22.54C77.864 22.9 78.524 23.08 79.2573 23.08C79.9907 23.08 80.644 22.9 81.2173 22.54C81.7907 22.18 82.244 21.6867 82.5773 21.06C82.9107 20.42 83.0773 19.6867 83.0773 18.86C83.0773 18.0333 82.9107 17.3067 82.5773 16.68C82.244 16.04 81.7907 15.5467 81.2173 15.2C80.644 14.84 79.9907 14.66 79.2573 14.66ZM88.4978 23.4C88.4978 23.56 88.4378 23.7 88.3178 23.82C88.1978 23.94 88.0578 24 87.8978 24C87.7245 24 87.5778 23.94 87.4578 23.82C87.3511 23.7 87.2978 23.56 87.2978 23.4V14.2C87.2978 14.04 87.3511 13.9 87.4578 13.78C87.5778 13.66 87.7245 13.6 87.8978 13.6C88.0711 13.6 88.2111 13.66 88.3178 13.78C88.4378 13.9 88.4978 14.04 88.4978 14.2V23.4ZM87.8978 12.26C87.6178 12.26 87.4045 12.2 87.2578 12.08C87.1245 11.9467 87.0578 11.76 87.0578 11.52V11.32C87.0578 11.08 87.1311 10.9 87.2778 10.78C87.4378 10.6467 87.6511 10.58 87.9178 10.58C88.1711 10.58 88.3645 10.6467 88.4978 10.78C88.6445 10.9 88.7178 11.08 88.7178 11.32V11.52C88.7178 11.76 88.6445 11.9467 88.4978 12.08C88.3645 12.2 88.1645 12.26 87.8978 12.26ZM90.9552 13.82H95.6152C95.7752 13.82 95.9085 13.88 96.0152 14C96.1218 14.1067 96.1752 14.24 96.1752 14.4C96.1752 14.5467 96.1218 14.6733 96.0152 14.78C95.9085 14.8867 95.7752 14.94 95.6152 14.94H90.9552C90.7952 14.94 90.6552 14.8867 90.5352 14.78C90.4285 14.66 90.3752 14.5267 90.3752 14.38C90.3752 14.22 90.4285 14.0867 90.5352 13.98C90.6552 13.8733 90.7952 13.82 90.9552 13.82ZM93.0152 11C93.1885 11 93.3285 11.06 93.4352 11.18C93.5552 11.3 93.6152 11.44 93.6152 11.6V21.64C93.6152 22.0133 93.6618 22.2933 93.7552 22.48C93.8618 22.6667 93.9952 22.7933 94.1552 22.86C94.3152 22.9133 94.4752 22.94 94.6352 22.94C94.7418 22.94 94.8352 22.9267 94.9152 22.9C95.0085 22.86 95.1085 22.84 95.2152 22.84C95.3352 22.84 95.4352 22.8867 95.5152 22.98C95.6085 23.0733 95.6552 23.1933 95.6552 23.34C95.6552 23.5267 95.5485 23.6867 95.3352 23.82C95.1218 23.94 94.8685 24 94.5752 24C94.4552 24 94.2752 23.9933 94.0352 23.98C93.7952 23.9533 93.5485 23.88 93.2952 23.76C93.0418 23.6267 92.8285 23.4 92.6552 23.08C92.4952 22.76 92.4152 22.3 92.4152 21.7V11.6C92.4152 11.44 92.4685 11.3 92.5752 11.18C92.6952 11.06 92.8418 11 93.0152 11ZM106.773 13.78C106.946 13.78 107.086 13.84 107.193 13.96C107.313 14.08 107.372 14.2267 107.372 14.4V23.4C107.372 23.56 107.313 23.7 107.193 23.82C107.073 23.94 106.933 24 106.773 24C106.599 24 106.453 23.94 106.333 23.82C106.226 23.7 106.173 23.56 106.173 23.4V21.02L106.513 20.86C106.513 21.2333 106.406 21.6133 106.193 22C105.993 22.3867 105.713 22.7467 105.353 23.08C104.993 23.4133 104.566 23.6867 104.073 23.9C103.593 24.1 103.073 24.2 102.513 24.2C101.606 24.2 100.793 23.9667 100.073 23.5C99.3658 23.0333 98.8058 22.3933 98.3925 21.58C97.9925 20.7667 97.7925 19.8533 97.7925 18.84C97.7925 17.8 97.9992 16.8867 98.4125 16.1C98.8258 15.3 99.3858 14.6733 100.093 14.22C100.799 13.7667 101.599 13.54 102.493 13.54C103.066 13.54 103.599 13.64 104.093 13.84C104.599 14.04 105.039 14.3133 105.413 14.66C105.786 15.0067 106.073 15.4067 106.273 15.86C106.486 16.3 106.593 16.76 106.593 17.24L106.173 16.94V14.4C106.173 14.2267 106.226 14.08 106.333 13.96C106.453 13.84 106.599 13.78 106.773 13.78ZM102.613 23.08C103.319 23.08 103.946 22.9 104.493 22.54C105.039 22.1667 105.466 21.66 105.773 21.02C106.093 20.3667 106.253 19.64 106.253 18.84C106.253 18.0533 106.093 17.3467 105.773 16.72C105.466 16.0933 105.039 15.5933 104.493 15.22C103.946 14.8467 103.319 14.66 102.613 14.66C101.919 14.66 101.293 14.84 100.733 15.2C100.186 15.56 99.7525 16.0533 99.4325 16.68C99.1258 17.3067 98.9725 18.0267 98.9725 18.84C98.9725 19.64 99.1258 20.3667 99.4325 21.02C99.7525 21.66 100.186 22.1667 100.733 22.54C101.279 22.9 101.906 23.08 102.613 23.08ZM111.841 23.4C111.841 23.56 111.781 23.7 111.661 23.82C111.541 23.94 111.401 24 111.241 24C111.068 24 110.921 23.94 110.801 23.82C110.695 23.7 110.641 23.56 110.641 23.4V9.8C110.641 9.64 110.701 9.5 110.821 9.38C110.941 9.26 111.081 9.2 111.241 9.2C111.415 9.2 111.555 9.26 111.661 9.38C111.781 9.5 111.841 9.64 111.841 9.8V23.4Z" fill="white"/>
<path d="M87.854 30.049C87.6953 30.049 87.56 29.9953 87.448 29.888C87.336 29.776 87.28 29.636 87.28 29.468C87.28 29.2907 87.336 29.1507 87.448 29.048C87.56 28.9407 87.6953 28.887 87.854 28.887C88.0127 28.887 88.148 28.9407 88.26 29.048C88.372 29.1507 88.428 29.2907 88.428 29.468C88.428 29.636 88.372 29.776 88.26 29.888C88.148 29.9953 88.0127 30.049 87.854 30.049ZM94.211 26.22C94.5097 26.22 94.7733 26.2783 95.002 26.395C95.2353 26.5117 95.4173 26.6913 95.548 26.934C95.6787 27.172 95.744 27.48 95.744 27.858V30H94.869V27.97C94.869 27.6387 94.7967 27.3913 94.652 27.228C94.5073 27.0647 94.2997 26.983 94.029 26.983C93.8377 26.983 93.6673 27.025 93.518 27.109C93.3733 27.193 93.259 27.3167 93.175 27.48C93.0957 27.6433 93.056 27.851 93.056 28.103V30H92.181V27.97C92.181 27.6387 92.1087 27.3913 91.964 27.228C91.8193 27.0647 91.6117 26.983 91.341 26.983C91.1497 26.983 90.9793 27.025 90.83 27.109C90.6853 27.193 90.571 27.3167 90.487 27.48C90.4077 27.6433 90.368 27.851 90.368 28.103V30H89.493V26.262H90.326V27.256L90.179 26.962C90.305 26.7193 90.487 26.535 90.725 26.409C90.9677 26.283 91.243 26.22 91.551 26.22C91.901 26.22 92.2043 26.3063 92.461 26.479C92.7223 26.6517 92.895 26.913 92.979 27.263L92.636 27.144C92.7573 26.864 92.958 26.64 93.238 26.472C93.518 26.304 93.8423 26.22 94.211 26.22ZM98.836 30.049C98.4206 30.049 98.0566 29.9673 97.744 29.804C97.436 29.636 97.1956 29.4073 97.023 29.118C96.855 28.8287 96.771 28.4997 96.771 28.131C96.771 27.7577 96.8526 27.4287 97.016 27.144C97.184 26.8547 97.4126 26.6283 97.702 26.465C97.996 26.3017 98.3296 26.22 98.703 26.22C99.067 26.22 99.3913 26.2993 99.676 26.458C99.9606 26.6167 100.185 26.8407 100.348 27.13C100.511 27.4193 100.593 27.76 100.593 28.152C100.593 28.1893 100.591 28.2313 100.586 28.278C100.586 28.3247 100.584 28.369 100.579 28.411H97.464V27.83H100.117L99.774 28.012C99.7786 27.7973 99.7343 27.6083 99.641 27.445C99.5476 27.2817 99.4193 27.1533 99.256 27.06C99.0973 26.9667 98.913 26.92 98.703 26.92C98.4883 26.92 98.2993 26.9667 98.136 27.06C97.9773 27.1533 97.8513 27.284 97.758 27.452C97.6693 27.6153 97.625 27.809 97.625 28.033V28.173C97.625 28.397 97.6763 28.5953 97.779 28.768C97.8816 28.9407 98.0263 29.0737 98.213 29.167C98.3996 29.2603 98.6143 29.307 98.857 29.307C99.067 29.307 99.256 29.2743 99.424 29.209C99.592 29.1437 99.7413 29.041 99.872 28.901L100.341 29.44C100.173 29.636 99.9606 29.7877 99.704 29.895C99.452 29.9977 99.1626 30.049 98.836 30.049ZM103.225 30.049C102.866 30.049 102.542 29.9697 102.252 29.811C101.968 29.6477 101.744 29.4237 101.58 29.139C101.417 28.8543 101.335 28.5183 101.335 28.131C101.335 27.7437 101.417 27.4077 101.58 27.123C101.744 26.8383 101.968 26.6167 102.252 26.458C102.542 26.2993 102.866 26.22 103.225 26.22C103.538 26.22 103.818 26.29 104.065 26.43C104.313 26.5653 104.509 26.773 104.653 27.053C104.798 27.333 104.87 27.6923 104.87 28.131C104.87 28.565 104.8 28.9243 104.66 29.209C104.52 29.489 104.327 29.699 104.079 29.839C103.832 29.979 103.547 30.049 103.225 30.049ZM103.33 29.3C103.54 29.3 103.727 29.2533 103.89 29.16C104.058 29.0667 104.191 28.9313 104.289 28.754C104.392 28.5767 104.443 28.369 104.443 28.131C104.443 27.8883 104.392 27.6807 104.289 27.508C104.191 27.3307 104.058 27.1953 103.89 27.102C103.727 27.0087 103.54 26.962 103.33 26.962C103.12 26.962 102.931 27.0087 102.763 27.102C102.6 27.1953 102.467 27.3307 102.364 27.508C102.266 27.6807 102.217 27.8883 102.217 28.131C102.217 28.369 102.266 28.5767 102.364 28.754C102.467 28.9313 102.6 29.0667 102.763 29.16C102.931 29.2533 103.12 29.3 103.33 29.3ZM104.464 30V29.118L104.499 28.124L104.429 27.13V24.806H105.297V30H104.464ZM106.659 30V26.262H107.534V30H106.659ZM107.1 25.646C106.937 25.646 106.801 25.5947 106.694 25.492C106.591 25.3893 106.54 25.2657 106.54 25.121C106.54 24.9717 106.591 24.848 106.694 24.75C106.801 24.6473 106.937 24.596 107.1 24.596C107.263 24.596 107.396 24.645 107.499 24.743C107.606 24.8363 107.66 24.9553 107.66 25.1C107.66 25.254 107.609 25.3847 107.506 25.492C107.403 25.5947 107.268 25.646 107.1 25.646ZM111.196 30V29.244L111.147 29.083V27.76C111.147 27.5033 111.07 27.305 110.916 27.165C110.762 27.0203 110.528 26.948 110.216 26.948C110.006 26.948 109.798 26.9807 109.593 27.046C109.392 27.1113 109.222 27.2023 109.082 27.319L108.739 26.682C108.939 26.528 109.177 26.4137 109.453 26.339C109.733 26.2597 110.022 26.22 110.321 26.22C110.862 26.22 111.28 26.3507 111.574 26.612C111.872 26.8687 112.022 27.2677 112.022 27.809V30H111.196ZM110.02 30.049C109.74 30.049 109.495 30.0023 109.285 29.909C109.075 29.811 108.911 29.678 108.795 29.51C108.683 29.3373 108.627 29.1437 108.627 28.929C108.627 28.719 108.676 28.53 108.774 28.362C108.876 28.194 109.042 28.061 109.271 27.963C109.499 27.865 109.803 27.816 110.181 27.816H111.266V28.397H110.244C109.945 28.397 109.744 28.446 109.642 28.544C109.539 28.6373 109.488 28.754 109.488 28.894C109.488 29.0527 109.551 29.1787 109.677 29.272C109.803 29.3653 109.978 29.412 110.202 29.412C110.416 29.412 110.608 29.363 110.776 29.265C110.948 29.167 111.072 29.0223 111.147 28.831L111.294 29.356C111.21 29.5753 111.058 29.7457 110.839 29.867C110.624 29.9883 110.351 30.049 110.02 30.049Z" fill="#F10101"/>
</g>
<defs>
<linearGradient id="paint0_linear_1_2" x1="1.89165" y1="3.62007" x2="13.1971" y2="17.3612" gradientUnits="userSpaceOnUse">
<stop offset="0.1875" stop-color="#660000"/>
<stop offset="0.515625" stop-color="#F10101"/>
</linearGradient>
<linearGradient id="paint1_linear_1_2" x1="49.0239" y1="3.69626" x2="67.8935" y2="13.5006" gradientUnits="userSpaceOnUse">
<stop offset="0.515625" stop-color="#F10101"/>
<stop offset="0.739583" stop-color="#8F0000"/>
</linearGradient>
<clipPath id="clip0_1_2">
<rect width="114" height="43" fill="white"/>
</clipPath>
</defs>
</svg>
